/* XPM */
static char *_627916833198[] = {
/* columns rows colors chars-per-pixel */
"70 70 256 2 ",
"   c #3E719F",
".  c #476E94",
"X  c #4E7296",
"o  c #45729E",
"O  c #49749B",
"+  c #557798",
"@  c #4F6F8C",
"#  c #4676A5",
"$  c #4B77A2",
"%  c #4C79A5",
"&  c #467AAC",
"*  c #4B7BAC",
"=  c #4677A9",
"-  c #537CA4",
";  c #537EAA",
":  c #577BA6",
">  c #457CB3",
",  c #4A7DB2",
"<  c #437DBB",
"1  c #467AB6",
"2  c #547EB0",
"3  c #627D98",
"4  c #6C8489",
"5  c #72858C",
"6  c #768A8F",
"7  c #6E8C94",
"8  c #6D8D9A",
"9  c #678899",
"0  c #728D95",
"q  c #728E9A",
"w  c #768A94",
"e  c #6E929D",
"r  c #6A919B",
"t  c #749196",
"y  c #7B9196",
"u  c #73939D",
"i  c #7A949C",
"p  c #7F989F",
"a  c #7B918F",
"s  c #5B84AB",
"d  c #5884AA",
"f  c #4D81B5",
"g  c #4481BD",
"h  c #4C83BC",
"j  c #4581B7",
"k  c #5383B5",
"l  c #5B8AB3",
"z  c #5184BB",
"x  c #5989B9",
"c  c #5E91BA",
"v  c #658AAB",
"b  c #6D94A3",
"n  c #6A93AA",
"m  c #7496A3",
"M  c #7A95A2",
"N  c #7599A4",
"B  c #7999A4",
"V  c #7294AB",
"C  c #749AA9",
"Z  c #7C9BAA",
"A  c #7E94A9",
"S  c #688DB6",
"D  c #6D92B3",
"F  c #6A95BA",
"G  c #769AB8",
"H  c #758EA8",
"J  c #7CA2AE",
"K  c #58819D",
"L  c #3F83C4",
"P  c #4584C4",
"I  c #4B85C3",
"U  c #4C88C6",
"Y  c #4B86CA",
"T  c #4687CB",
"R  c #5186C2",
"E  c #588CC4",
"W  c #5C93CA",
"Q  c #5590D2",
"!  c #6295C6",
"~  c #6599CB",
"^  c #6B9AC7",
"/  c #759EC4",
"(  c #79A5C9",
")  c #7CADDB",
"_  c #78A8D3",
"`  c #6EA0CF",
"'  c #7DADE4",
"]  c #7CAEEB",
"[  c #7EB4EC",
"{  c #7EB1E5",
"}  c #7CB5F1",
"|  c #82949A",
" . c #869398",
".. c #849CA4",
"X. c #8A9DA3",
"o. c #829CAA",
"O. c #8397A5",
"+. c #839CB8",
"@. c #929EA3",
"#. c #84A3AE",
"$. c #8AA4AC",
"%. c #8AA3A6",
"&. c #95A7AB",
"*. c #83A3B3",
"=. c #8CA6B2",
"-. c #8CABB6",
";. c #87A7BC",
":. c #94ACB4",
">. c #98ACB7",
",. c #9DB2BA",
"<. c #9AB0B8",
"1. c #A4ABAA",
"2. c #A4B2B4",
"3. c #ADB6B6",
"4. c #A9B7BD",
"5. c #B1B9B9",
"6. c #A1AEB4",
"7. c #82A3C3",
"8. c #8BA7C2",
"9. c #8AAAC2",
"0. c #85AACB",
"q. c #8BACCC",
"w. c #84A7C6",
"e. c #93AEC7",
"r. c #8CB2CA",
"t. c #9CBAC5",
"y. c #93B3CC",
"u. c #9BB7C9",
"i. c #84ADD4",
"p. c #8BADD3",
"a. c #83ADDC",
"s. c #8BAED9",
"d. c #81A6D0",
"f. c #8CB2D4",
"g. c #85B1DC",
"h. c #8CB2DC",
"j. c #8AB5D8",
"k. c #93B4D4",
"l. c #9BB9D5",
"z. c #93B5DB",
"x. c #9BBDDB",
"c. c #95B9D8",
"v. c #ABBCC3",
"b. c #A4BAC7",
"n. c #A5BDD4",
"m. c #B3BCC4",
"M. c #83AEE2",
"N. c #82B1E4",
"B. c #8AB3E3",
"V. c #83B4EC",
"C. c #8AB8EA",
"Z. c #94BBE5",
"A. c #82B6F2",
"S. c #8BBDF2",
"D. c #86B9F4",
"F. c #90BDF4",
"G. c #AEC1C6",
"H. c #ABC3CB",
"J. c #B3C4CA",
"K. c #BCCACB",
"L. c #B8C6C8",
"P. c #ADC5D4",
"I. c #ABC4DB",
"U. c #ADC9DD",
"Y. c #A7C3D9",
"T. c #B5CCDC",
"R. c #BACCDB",
"E. c #B7C9D4",
"W. c #BBD1DD",
"Q. c #B8D1D7",
"!. c #9BC1E4",
"~. c #9CC3EC",
"^. c #97C4E8",
"/. c #99C7F6",
"(. c #8EC1FA",
"). c #A3C5E4",
"_. c #ADCAE4",
"`. c #ACCCEA",
"'. c #A7C9E8",
"]. c #B4CCE4",
"[. c #B2CEE9",
"{. c #BBCEE1",
"}. c #BBD4E4",
"|. c #B5D1ED",
" X c #BBD4EB",
".X c #BAD7E8",
"XX c #A9CEF4",
"oX c #A4CEF7",
"OX c #ACD1F5",
"+X c #A8D2FB",
"@X c #BDD9F3",
"#X c #B4D6FB",
"$X c #BADBFD",
"%X c #B7D7F6",
"&X c #AFD2E8",
"*X c #BCE2FF",
"=X c #9EC0D9",
"-X c #C3CACC",
";X c #C2CDD2",
":X c #C1CFDA",
">X c #C5D2D5",
",X c #C3D4DB",
"<X c #CCDADC",
"1X c #C9D6D9",
"2X c #D6DBDB",
"3X c #D0D2CC",
"4X c #C3D3E3",
"5X c #C5DCE3",
"6X c #CDDBE2",
"7X c #C2D6ED",
"8X c #CADCEB",
"9X c #C5DAED",
"0X c #D2DEE4",
"qX c #D5DEE8",
"wX c #C3DBF3",
"eX c #C7DCF5",
"rX c #CBE2EA",
"tX c #DCE3E5",
"yX c #D4E4EB",
"uX c #DCE4EA",
"iX c #D9E6EA",
"pX c #CCE1F4",
"aX c #C2E4FE",
"sX c #CBE4FC",
"dX c #CCEBFE",
"fX c #CEE8F7",
"gX c #D3E4F4",
"hX c #DBEBF4",
"jX c #D0E6FB",
"kX c #D4EBFC",
"lX c #DAECFB",
"zX c #D6E8F3",
"xX c #DCF3FF",
"cX c #D9F5FF",
"vX c #EAEBE5",
"bX c #E3EBEB",
"nX c #EBEDED",
"mX c #E4E6E7",
"MX c #F4F2ED",
"NX c #FAF6EE",
"BX c #E4EEF4",
"VX c #E1EFFC",
"CX c #EBEEF3",
"ZX c #EBF3F5",
"AX c #E4F3FE",
"SX c #ECF5FC",
"DX c #E4FAFF",
"FX c #ECFCFE",
"GX c #E3F1F1",
"HX c #F2F4F2",
"JX c #F2F6FA",
"KX c #F4FDFE",
"LX c #FAFEFE",
"PX c #F9F9F5",
"IX c #EDEFEC",
"UX c #BBE3ED",
/* pixels */
"UXUXUXUXUXUXUXUXUXUXUXUXUXUXUXUXUXUXUXUXUXUXUXUXUXUXUXUXUXUXUXUXUXUXUXUXUXUXUXUXUXUXUXUXUXUXUXUXUXUXUXUXUXUXUXUXUXUXUXUXUXUXUXUXUXUXUXUXUXUX",
"UXUXUXUXUXUXUXUXUXUXUXUXUXUXUXUXUXUXUXUXUXUXUXUXUXUXUXUXUXUXUXUXUXUXUXUXUXUXUXUXUXUXUXUXUXUXUXUXUXUXUXUXUXUXUXUXUXUXUXUXUXUXUXUXUXUXUXUXUXUX",
"UXUXUXUXUXUXUXUXUXUXUXUXUXUXUXUXUXUXUXUXUXUXUXUXUXUXl.M UXUXUXUXUXUXUXUXUXUXUXUXUXUXUXUXUXUXUXUXUXUXUXUXUXUXUXUXUXUXUXUXUXUXUXUXUXUXUXUXUXUX",
"UXUXUXUXUXUXUXUXUXUXUXUXUXUXUXUXUXUXUXUXUXUXUXUXq.d . u.UXUXUXUXUXUXUXUXUXUXUXUXUXUXUXUXUXUXUXUXUXUXUXUXUXUXUXUXUXUXUXUXUXUXUXUXUXUXUXUXUXUX",
"UXUXUXUXUXUXUXUXUXUXUXUXUXUXUXUXUXUXUXUXUXUXU.k 1 > G UXUXUXUXUXUXUXUXUXUXUXUXUXUXUXUXUXUXUXUXUXUXUXUXUXUXUXUXUXUXUXUXUXUXUXUXUXUXUXUXUXUXUX",
"UXUXUXUXUXUXUXUXUXUXUXUXUXUXUXUXUXUXUXUXUX8.$ h Y * UXUXUXUXUXUXUXUXUXUXUXUXUXUXUXUXUXUXUXUXUXUXUXUXUXUXUXUXUXUXUXUXUXUXUXUXUXUXUXUXUXUXUXUX",
"UXUXUXUXUXUXUXUXUXUXUXUXUXUXUXUXUXUXUXUXF % h h 1 f.UXUXUXUXUXUXUXUXUXUXUXUXUXUXUXUXUXUXUXUXUXUXUXUXUXUXUXUXUXUXUXUXUXUXUXUXUXUXUXUXUXUXUXUX",
"UXUXUXUXUXUXUXUXUXUXUXUXUXUXUXUXUXUXUXG * I I f s UXUXUXUXUXUXUXUXUXUXUXUXUXUXUXUXUXUXUXUXUXUXUXUXUXUXUXUXUXUXUXUXUXUXUXUXUXUXUXUXUXUXUXUXUX",
"UXUXUXUXUXUXUXUXUXUXUXUXUXUXUXUXUXUX0.$ z P U & y.JXUXUXUXUXUXUXUXUXUXJXLXZXnXLXLXZXSXrXK.J.v.v.E.,X<XUXUXUXUXUXUXUXUXUXUXUXUXUXUXUXUXUXUXUX",
"UXUXUXUXUXUXUXUXUXUXUXUXUXUXUXUXUXU.& h h h I * pXLXUXUXUXUXUXUXSXgX9XR.uXPXLXGX;X&.| y 0 8 8 t 0 0 M o.v.0XUXUXUXUXUXUXUXUXUXUXUXUXUXUXUXUX",
"UXUXUXUXUXUXUXUXUXUXUXUXUXUXUXUXAXs f h h I > / SXLXNXCXLXKXgX`.B.p.8.4XZXFXE.i t r u B N N B N m B N m 8 i $.UXUXUXUXUXUXUXUXUXUXUXUXUXUXUX",
"UXUXUXUXUXUXUXUXUXUXUXUXUXUXUXLXs.% h I h h % |.LXvXNXLXlX).s.N.V.B.eXKXiXX.8 m N u e b B B N N m B i N M m i 0 2.UXUXUXUXUXUXUXUXUXUXUXUXUX",
"UXUXUXUXUXUXUXUXUXUXUXUXUX4.LXbXR 2 z R Y , v lXPXMXJXeXz.N.V.V.p.@XLXK.0 b N N r u *.-.Z B b u u e t q 0 7 0 7 5  .UXUXUXUXUXUXUXUXUXUXUXUX",
"UXUXUXUXUXUXUXUXUXUXUXUXy m.KXv.1 R , Q Y = 7.JXnXLXpXp.V.} V.a.R.KXL.a u C b 8 -.t.=.B m e b C Z *.r.u.U..X{.T.W.v.UXUXUXUXUXUXUXUXUXUXUXUX",
"UXUXUXUXUXUXUXUXUXUXUX,.5 P.FX+.< , x Q I * n.LXLX7Xs.B.A.[ p.!.FX,Xw M N 0 m H.,.u t u B 9.r.r.r.j.j.c.Z.`.eXDXFXKXUXUXUXUXUXUXUXUXUXUXUXUX",
"UXUXUXUXUXUXUXUXUXUXUXw 0 E.xX9 L 2 ! W P 2 eXLXBXk.A.A.V.g.f.xXbXi b C 8 &.R.=.r r $.t.u.G F d K % j & & # - 9 o.J.CXLXUXUXUXUXUXUXUXUXUXUX",
"UXUXUXUXUXUXUXUXUXUX=.u 0 W.%XO U * F ~ g S DXSXY.N.[ V.V.a.7XLX<.r N 7 <.W.p 5 $.}.).^ h < P T T U I U I T T P < < z ^.cXUXUXUXUXUXUXUXUXUX",
"UXUXUXUXUXUXUXUXUXUXq B 0 R.`.$ U f G W > ( KXyXi.[ D.F.B.Z.KX3Xr B t <.rX0 y 5XkXw.- * h R h > & j > , * * > h h h f % v .XUXUXUXUXUXUXUXUX",
"UXUXUXUXUXUXUXUXUX4.e B q P.).# Y * ( c # z.FXU.N.} (.z.y.sXKX1.r e &.rXy &.DXwXv , z f # % l G _ ) ) _ ( ( ^ E z f h z > * y.UXUXUXUXUXUXUX",
"UXUXUXUXUXUXUXUXUXZ N N 0 u.z.= Y , ( c O '.FXy.N.D./.0.n.KX6Xy C B zX@.3.KX_.$ z > & ! Z.OX'.Y.r.G ^ c c E ! Q W E I P U h $ 7.UXUXUXUXUXUX",
"UXUXUXUXUXUXUXUXUXu N B u -.f.* U , ) F O $XdXq.M.S./.w.8XLXG.7 t .Xv.5.LXY.% k & ^ $X%Xk.n + @ X X X O # > < P I U I P P h h * ;.UXUXUXUXUX",
"UXUXUXUXUXUXUXUX,X8 N u u *.f.% U & ) ( X aX*Xp.s./.F.c.AXJX&.9 <.iX3.LX X- = l |.rX,.B ;.).$XaXaXaX#X).j.( S ; * , h h h I I Y O q.UXUXUXUX",
"UXUXUXUXUXUXUXUXG.t m N u C j.d Y & i.p.X *X#X0.p.+XB._.LXbX .8 rX-XHXcX: * w.gX>Xv.5XcXcXaX#X#X#X*XcXDXDXKXAX5XI.+.d % & g P P h - UXUXUXUX",
"UXUXUXUXUXUXUXUXG.0 m N u m r.d T , F =X@ aX#Xi.g.+Xz.pXKX2X6 =.mX2XKX;.O k.xX0XzXAX%Xx.q.q.i.i.i.i.q.y.E.zXKXLXKXKXUXI.G d & h U h v UXUXUX",
"UXUXUXUXUXUXUXUXG.8 N u B e r.S L f v '.+ $X$Xp.a.+Xl.lXLX-X5 P.vXKX|.@ l.FXmXAX%Xa._ a.i.p.a.s.g.i.g.g.p.f._.AXZXIXUXUXUXUX9.d , z > l.UXUX",
"UXUXUXUXUXUXUXUXG.t N B B u *.;.L h $ OXD x.dXp.a.#X_.uXLX-X5 hXNXAXH e.DXJXzXk.p.h.~.XX#XXX+X+X/./.(.[ } V.) k.jXKXUXUXUXUXUXUX7.; > l UXUX",
"UXUXUXUXUXUXUXUX>Xt N N #.e B u.h z * B.z.9.xXp.M.+X].BXLXK. .SXPX6XO.DXKX8X;.l.@XeX9X].T.n.l.z.C.^././.(.V.V.M.f.fXKXUXUXUXUXUXLX@XF . I.UX",
"UXUXUXUXUXUXUXUXUXt u e -.B e b./ * , E $XA xXx.a.oX XCXJXK.&.ZXUXUXUXUXUXUXUXDXBXmXCXCXhXSXlX7X`.c.0.i.Z.Z.B.V.V.j.hXCXHXUXUXUXUXJXAXu.o.UX",
"UXUXUXUXUXUXUXUXUXX.u u #.-.0 #.`.- I & XXt.4XwX_ '.eX0XLX1XUXUXUXUXUXUXUXUXUXUXPXLXPXLXLXLXFXLXKXAXyXn.s.s.C.A.[ N.k.KXKXUXUXUXUXUXLXJXUXUX",
"UXUXUXUXUXUXUXUXUX<.8 m e t.Z 8 }.r.* , F eXv.AXs.h.pXbXLXUXUXUXUXUXUXUXUXUXUXUXUXmX-X-XL.L.-X2XmXHXLXFXsXZ.a.V.V.V.a.].LXUXUXUXUXUXUXUXUXUX",
"UXUXUXUXUXUXUXUXUX>Xw B N #.b.8 %.cXn * % _.4XqXeX( 7XSXUXUXUXUXUXUXUXUXUXUXUXUXUXUX5.&.| 6 4 t | $.b.zXKXDX Xf.M.V.A.s.lXUXUXUXUXUXUXUXUXUX",
"UXUXUXUXUXUXUXUXUXJX$.e N 8 t.-.4 E.sX2 h s zX0XkXx.y.BXUXUXUXUXUXUXUXUXUXUXUXUXUXUXUXDXFX8XP.-.r r e y 1.2XLXlX~.] A.s. XSXUXUXUXUXUXUXUXUX",
"UXUXUXUXUXUXUXUXUXLXE.0 B u M T.J w BX5X: > ^ xXvXhXp.XXUXUXUXUXUXUXUXUXUXUXUXUXUXUXUXLXLXMXvXvX5X:.0 t u b <.hXPXR.g.{ x.AXUXUXUXUXUXUXUXUX",
"UXUXUXUXUXUXUXUXUXHXZX&.t C m o..Xy &.FX Xs O 9.FXAXpXUXUXUXUXUXUXUXUXUXUXUXUXUXUXUXUXK.1XFXFX3X3XzX}.i t u r A ,XLX@Xp.f.AXUXUXUXUXUXUXUXUX",
"UXUXUXUXUXUXUXUXUXmXLXyXu N C 8 &.rX| 2.LXeXV . w.FXLXUXUXUXUXUXUXUXUXUXUXUXUXUXUXUXUX<XM G wXKXvX2.J.pX%.0 N m t Q.LX7X8.pXLXUXUXUXUXUXUXUX",
"UXUXUXUXUXUXUXUXUXR.R.FX5X0 m C q $.iX&.1.JXDXy.X Z BXUXUXUXUXUXUXUXUXUXUXUXUXUXUXUXUXKXAXo.@ q.lXLX3.X.rX:.8 B m 7 >XLXR.}.LXUXUXUXUXUXUXUX",
"UXUXUXUXUXUXUXUXUX9Xw.wXKX;Xy m Z q X.rXK.3.tXKXgXZ p 0XUXUXUXUXUXUXUXUXUXUXUXUXUXUXUXgXFXLX-.o S eXLX2.u rX$.r u b t iXSXZXUXUXUXUXUXUXUXUX",
"UXUXUXUXUXUXUXUXUXUXs.M.|.LX<XO.0 M u e &XyX>X2XZXKXyX;XUXUXUXUXUXUXUXUXUXUXUXUXUXUXUXe.yXZXDXw.> : {.FX#.t 5X%.u N 7 &.JXMXUXUXUXUXUXUXUXUX",
"UXUXUXUXUXUXUXUXUXUXZ.N.a.].FXZX4.y t C r -.5XiXbXKXJXPXPXUXUXUXUXUXUXUXUXUXUXUXUXUXSXR.e.jXhXSX^ * - |.hXa ..P.B m m 0 >XUXUXUXUXUXUXUXUXUX",
"UXUXUXUXUXUXUXUXUXUXT.) A.) x.kXFXzX,.y t 5 7 X.v.>XnXLXZXUXUXUXUXUXUXUXUXUXUXUXUXnXPXVXk.Z.VX3XsXd h d fXK.4 -.u.q B t %.UXUXUXUXUXUXUXUXUX",
"UXUXUXUXUXUXUXUXUXUXUXp.[ } N.f. XDXLXnXK.>. .y 6 5 | @.6.E.UXUXUXUXUXUXUXUXUXUXmXHXMXVXOX( pX2X,X)., , n cX%.8 b.=.q M t 5XUXUXUXUXUXUXUXUX",
"UXUXUXUXUXUXUXUXUXUXUX].a.A.[ N.s.c.eXLXKXKXSXuX4X4XR.;X0XbXvXLXUXUXUXUXUXUXPXJXm.nXHXuXsXi.k.DX2.pXF , = j.T.5 Z t.m m t ,.UXUXUXUXUXUXUXUX",
"UXUXUXUXUXUXUXUXUXUXUXUXl.N.V.V.V.B.a.x.wXxXSXLXLXJXLXLXPXPXLXnXDXgXm.BXLXbXnXLX6.1XLXbX.Xx.d.eX{.b._.= h * &X%.7 -.*.u q $.UXUXUXUXUXUXUXUX",
"UXUXH ;.UXUXUXUXUXUXUXUXjXf.h.V.C.S.D.M.i.y.n.7XgXuXmXbXmXuXVXVX).,.zXLX:X;XLXJXX.:XKXbX}.'.) ~.lXO.wXl I > ( t.7 Z =.u u i UXUXUXUXUXUXUXUX",
"UXUXl.X D [.UXUXUXUXUXUXKXgXk.M.V.V.F././.!.x.c.n.I.T.4XpXaX'.h.e.qXKXhXw VXLXtXy :XSXuXT.XX) B.xXO.n.p.> h d c.B M #.N N t 0XUXUXUXUXUXUXUX",
"UXUXUXs 2 ; 7.UXUXUXUXPXMXSXlXZ.) N.s.f.h.^./.oXoXXXXX'.Z.i._ ^.lXKXSXq >.KXCX0X5 :XLXbXP.OX' ' xXu.m XX= I , ( +.t o.C m 0 K.UXUXUXUXUXUXUX",
"UXUXUXy.* R * : ;.%XxXLXJXZXKXAX&Xk.p.a.g.N.N.N.M.M.) a.0.l.sXkXBXDX( X lXnXmXv.w 6XLXgXl.XXN.] pX].+ XXk h j F ;.t B N u 7 L.UXUXUXUXUXUXUX",
"UXUXUXUXx < Y I > % V 4.0XKXHXNXLXsXOXS.V.' ' [ ' N.B.~.dXDX>XmXnXG o Z.JX2XvX..w BXFX{.l.oXN.] 8X}.X ^.c h f l y.u i N N 7 ;XUXUXUXUXUXUXUX",
"UXUXUXUXUX- h I I h 1 < < ~ Z.#XkXFXKXLXZXzX6XrXzXjXDXcXP.4.rX5XQ # V DXbX;XR.7 %.GXLXn.Z./.' ] qX@Xo C.` > h f r.Z M N N 7 K.UXUXUXUXUXUXUX",
"UXUXUXUXUXe.# I I R z R h * * - s G 9.y.].%X|.@X].>.A A n.dX!.; $ v jXLX3.yX*.7 <.SXAXe.).^.{ ] hX7Xo ) _ > I & r.%.u V C 0 <XUXUXUXUXUXUXUX",
"UXUXUXUXUXUX( * h I h , k z k f f # # o o O o O K J U.@X).c > I 3 7XLX&.K.P.b w -XLX Xa./.Z.N.} BXI.o ` _ 1 U & =X=.t C B i ZXUXUXUXUXUXUXUX",
"UXUXUXUXUXUXUX7.# h I I I x W ! ~ ~ ! ^ ` ) B./.+X'.( d & j & k pXFX&.1.yXq m | nXDXz.N./.h.s.F.LXu.o ~ _ > U & I.<.8 C e &.UXUXUXUXUXUXUXUX",
"UXUXUXUXUXUXUXUXu.% > U P g z x ! ~ ^ ` ` _ ` c f & > h h & G kXcX..X.yXp u e 4.LX Xi.D.S.B.p.XXKXw.# ! ~ , U & U.v.0 C 8 J.UXUXUXUXUXUXUXUX",
"UXUXUXUXUXUXUXUXUX@XD # j U h h < j h > j & j j h h h > k =XfXH.4 ..rX$.u N y yXAXc.' (.A.B.y.AXDXD = ~ ~ < Y = wXJ.7 N u 2XUXUXUXUXUXUXUXUX",
"UXUXUXUXUXUXUXUXUXUXUXI.D % & h h I U U U U h h h f l ( &XP...4 =.<XX.8 N 0 4.LX].a.V.D.A.i. XLXdXl * ~ ! > I ; fXG.t t ,.PXUXUXUXUXUXUXUXUX",
"UXUXUXUXUXUXUXUXUXUXUXUXxX].w.S d % & & > * f c ^ ( c.t.B 6 8 t.E.i u C e %.ZXlXs.V.A.V.a.!.AXHX|.% f ~ E h g S DXm.t u zXUXUXUXUXUXUXUXUXUX",
"UXUXUXUXUXUXUXUXUXUXUXUXJXLXKXDXcX.X).'.c.y.y.r.9.J m 8 t o.b.u.t u C b y iXDXc.N.} A.g.z.fXUXUXj.* h W z h & w.KXL.4 J.UXUXUXUXUXUXUXUXUXUX",
"UXUXUXUXUXUXUXUXUXUXUXUX3.2.4.G.J.G.4.<.-.p i t 7 t u J -.u.o.y u N e y <XFX'.) A.C.g.f.UXUXUXUX^ , z E h h %  XLX1.@.JXUXUXUXUXUXUXUXUXUXUX",
"UXUXUXUXUXUXUXUXUXUXUXUXUX .5 e 7 0 0 7 t u u i B B *.-.o.m q i N q | 6XKX`.a.A.V.a.Y.UXUXUXUXUX, z h h P , D FXGX5.bXUXUXUXUXUXUXUXUXUXUXUX",
"UXUXUXUXUXUXUXUXUXUXUXUXUXUXt.u r N C C b b b C C C m 8 m M m b t :.SXLX{.p.g.a.s.@XUXUXUXUXUXb.1 z h P U % I.KXPXHXUXUXUXUXUXUXUXUXUXUXUXUX",
"UXUXUXUXUXUXUXUXUXUXUXUXUXUXUXUX:.u 8 b b N C N N N N N m q q -.<XKXJXn.w.k.x.7XAXUXUXUXUXUXUXH 1 I P I > G AXUXUXUXUXUXUXUXUXUXUXUXUXUXUXUX",
"UXUXUXUXUXUXUXUXUXUXUXUXUXUXUXUXUXUXJ.$.p t w 0 7 7 t u o.v.yXZXPXLXqX4XjXkXAXLXHXUXUXUXUXUX X: h I I h ;  XUXUXUXUXUXUXUXUXUXUXUXUXUXUXUXUX",
"UXUXUXUXUXUXUXUXUXUXUXUXUXUXUXUXUXUXUXUXUXUXUXK.L.1X5XUXUXUXUXUXUXUXKXLXJXKXKXvXNXUXUXUXUXUXG , < I I $ n.LXUXUXUXUXUXUXUXUXUXUXUXUXUXUXUXUX",
"UXUXUXUXUXUXUXUXUXUXUXUXUXUXUXUXUXUXUXUXUXUXUXUXUXUXUXUXUXUXUXUXUXUXUXUXUXUXUXUXUXUXUXUXUX4X$ I R R 1 p.KXUXUXUXUXUXUXUXUXUXUXUXUXUXUXUXUXUX",
"UXUXUXUXUXUXUXUXUXUXUXUXUXUXUXUXUXUXUXUXUXUXUXUXUXUXUXUXUXUXUXUXUXUXUXUXUXUXUXUXUXUXUXUXVX+.1 Q Y $ -.KXUXUXUXUXUXUXUXUXUXUXUXUXUXUXUXUXUXUX",
"UXUXUXUXUXUXUXUXUXUXUXUXUXUXUXUXUXUXUXUXUXUXUXUXUXUXUXUXUXUXUXUXUXUXUXUXUXUXUXUXUXUXUXUX[.% R 1 - l.KXUXUXUXUXUXUXUXUXUXUXUXUXUXUXUXUXUXUXUX",
"UXUXUXUXUXUXUXUXUXUXUXUXUXUXUXUXUXUXUXUXUXUXUXUXUXUXUXUXUXUXUXUXUXUXUXUXUXUXUXUXUXUXUXxXS > # D 4XKXUXUXUXUXUXUXUXUXUXUXUXUXUXUXUXUXUXUXUXUX",
"UXUXUXUXUXUXUXUXUXUXUXUXUXUXUXUXUXUXUXUXUXUXUXUXUXUXUXUXUXUXUXUXUXUXUXUXUXUXUXUXUXUXUX*.. F n.lXLXUXUXUXUXUXUXUXUXUXUXUXUXUXUXUXUXUXUXUXUXUX",
"UXUXUXUXUXUXUXUXUXUXUXUXUXUXUXUXUXUXUXUXUXUXUXUXUXUXUXUXUXUXUXUXUXUXUXUXUXUXUXUXUXUX;XX.R.VXLXJXUXUXUXUXUXUXUXUXUXUXUXUXUXUXUXUXUXUXUXUXUXUX",
"UXUXUXUXUXUXUXUXUXUXUXUXUXUXUXUXUXUXUXUXUXUXUXUXUXUXUXUXUXUXUXUXUXUXUXUXUXUXUXUXUXUXUXFXLXnXIXUXUXUXUXUXUXUXUXUXUXUXUXUXUXUXUXUXUXUXUXUXUXUX"
};
