/* XPM */
static char *_627915062782[] = {
/* columns rows colors chars-per-pixel */
"70 70 231 2 ",
"   c #030102",
".  c #090808",
"X  c #171617",
"o  c #100F10",
"O  c #292828",
"+  c #363535",
"@  c #3F5718",
"#  c #435A1A",
"$  c #45641B",
"%  c #4A6A1E",
"&  c #4B641D",
"*  c #52691F",
"=  c #53701E",
"-  c #566E25",
";  c #557321",
":  c #5B7B23",
">  c #587525",
",  c #5E7432",
"<  c #6C7D26",
"1  c #667A26",
"2  c #6A742A",
"3  c #484848",
"4  c #555759",
"5  c #605F5D",
"6  c #6B7B4A",
"7  c #5D5F61",
"8  c #6A6B6B",
"9  c #777878",
"0  c #7A7F65",
"q  c #B17C2B",
"w  c #A57729",
"e  c #5F8025",
"r  c #6B8B29",
"t  c #698427",
"y  c #73832A",
"u  c #758B2A",
"i  c #7C8B2D",
"p  c #79832A",
"a  c #74932D",
"s  c #7C932D",
"d  c #7E992F",
"f  c #7C8E33",
"g  c #77883A",
"h  c #7C9536",
"j  c #788848",
"k  c #798758",
"l  c #718D50",
"z  c #748465",
"x  c #848D2E",
"c  c #878A2D",
"v  c #83942E",
"b  c #8A942F",
"n  c #829B2F",
"m  c #96992E",
"M  c #838C34",
"N  c #828C3E",
"B  c #859434",
"V  c #8B9432",
"C  c #849C31",
"Z  c #8A9C32",
"A  c #8E9C3A",
"S  c #86943B",
"D  c #939B32",
"F  c #939C39",
"G  c #989935",
"H  c #938D30",
"J  c #B6892E",
"K  c #A69B34",
"L  c #B79A36",
"P  c #A58939",
"I  c #8BA433",
"U  c #8CAA35",
"Y  c #86A233",
"T  c #92A434",
"R  c #9CA334",
"E  c #94AB36",
"W  c #9AAC36",
"Q  c #9DAE39",
"!  c #97A83A",
"~  c #9DB138",
"^  c #87A12F",
"/  c #A4A336",
"(  c #ABA436",
")  c #A3AB36",
"_  c #ACA339",
"`  c #A5AD3A",
"'  c #A9AB38",
"]  c #B6AB3A",
"[  c #A4B239",
"{  c #ACB53B",
"}  c #AEB73B",
"|  c #B2B53B",
" . c #BAB43C",
".. c #B4B93D",
"X. c #BBBC3D",
"o. c #C89834",
"O. c #D09234",
"+. c #D4A73B",
"@. c #C2BE3F",
"#. c #C6A037",
"$. c #C3C03F",
"%. c #CEC13E",
"&. c #848E4B",
"*. c #8C9544",
"=. c #8A9649",
"-. c #939B41",
";. c #989C48",
":. c #838C55",
">. c #899555",
",. c #969A57",
"<. c #958545",
"1. c #97A843",
"2. c #9CA657",
"3. c #89A248",
"4. c #A8A849",
"5. c #B5AC40",
"6. c #A9B648",
"7. c #B6BB46",
"8. c #A6A859",
"9. c #ABB657",
"0. c #B7BB59",
"q. c #B3AE57",
"w. c #8B9564",
"e. c #949867",
"r. c #8D9574",
"t. c #949B73",
"y. c #959779",
"u. c #8A8E71",
"i. c #99A566",
"p. c #9AA376",
"a. c #A5AA66",
"s. c #ACB769",
"d. c #B7B969",
"f. c #A5AA78",
"g. c #A9B477",
"h. c #B6B975",
"j. c #B7AF74",
"k. c #A39D46",
"l. c #CCBD42",
"z. c #C4BA43",
"x. c #D9B742",
"c. c #C0BB57",
"v. c #C4BD73",
"b. c #BDC149",
"n. c #B8C25A",
"m. c #BAC464",
"M. c #BCC675",
"N. c #C5C141",
"B. c #CCC442",
"V. c #C3C44B",
"C. c #CCC84D",
"Z. c #D2C643",
"A. c #D6C944",
"S. c #DCCB45",
"D. c #DDCD4B",
"F. c #D8C749",
"G. c #C8C856",
"H. c #D7CE56",
"J. c #DDD35B",
"K. c #DBD157",
"L. c #E0CC47",
"P. c #E1CE49",
"I. c #E4D14E",
"U. c #E5D351",
"Y. c #E1D55D",
"T. c #E9D857",
"R. c #E1CD57",
"E. c #C8CB69",
"W. c #D6D368",
"Q. c #C7CA76",
"!. c #D7D77A",
"~. c #D0CE70",
"^. c #EBDC65",
"/. c #EADD6B",
"(. c #E4D865",
"). c #E3DD7C",
"_. c #E8DD73",
"`. c #EBE078",
"'. c #7F8080",
"]. c #979C9C",
"[. c #88938A",
"{. c #9DA487",
"}. c #A3AA87",
"|. c #B6B888",
" X c #A5A99B",
".X c #ADB399",
"XX c #B3B798",
"oX c #ABB287",
"OX c #A9AAA7",
"+X c #B5B8A6",
"@X c #BABCBB",
"#X c #B4B4B3",
"$X c #A9B4B3",
"%X c #999DA0",
"&X c #BCC59B",
"*X c #BEC4A9",
"=X c #BEC4BF",
"-X c #C8CE87",
";X c #CBD386",
":X c #D7D989",
">X c #C6C89B",
",X c #DADD93",
"<X c #D9D998",
"1X c #CDD592",
"2X c #E3DE86",
"3X c #E4DF9D",
"4X c #DDE09A",
"5X c #EAE38A",
"6X c #E9E496",
"7X c #C4C4A5",
"8X c #CBD1B0",
"9X c #DEE1A2",
"0X c #E7E7A5",
"qX c #B2BCC1",
"wX c #C8CBC9",
"eX c #CED3CA",
"rX c #C8CED1",
"tX c #D3D5D3",
"yX c #D9DDDC",
"uX c #D3D8D9",
"iX c #D2D5D2",
"pX c #E2E4D5",
"aX c #DEE4E6",
"sX c #EBEDEC",
"dX c #E3E8E8",
"fX c #EEF0EE",
"gX c #EDF2F2",
"hX c #FDFEFD",
"jX c #F4F7F7",
"kX c #EDF1EF",
"lX c #BBE3ED",
/* pixels */
"lXlXlXlXlXlXlXlXlXlXlXlXlXlXlXlXlXlXlXlXlXlXlXlXlXlXlXlXlXlXlXlXlXlXlXlXlXlXlXlXlXlXlXlXlXlXlXlXlXlXlXlXlXlXlXlXlXlXlXlXlXlXlXlXlXlXlXlXlXlX",
"lXlXlXlXlXlXlXlXlXlXlXlXlXlXlXlXlXlXlXlXlXlXlXlXlXlXlXlXlXlXlXlXlXlXlXlXlXlXlXlXlXlXlXlXlXlXlXlXlXlXlXlXlXlXlXlXlXlXlXlXlXlXlXlXlXlXlXlXlXlX",
"lXlXlXlXlXlXlXlXlXlXlXlXlXlXlXlXlXlXlXlXlXlXlXlXlXlXlXlXlXlXlXlXlXlXlXlXlXlXlXlXlXlXlXlXlXlXlXlXlXlXlXlXlXlXlXlXlXlXlXlXlXlXlXlXlXlXlXlXlXlX",
"lXlXlXlXlXlXlXlXlXlXlXlXlXlXlXlXlXlXlXlXlXlXlXlXlXlXlXlXlXlXlXlXlXlXlXlXlXlXlXlXlXlXlXlXlXlXlXlXlXlXlXlXlXlXlXlXlXlXlXlXlXlXlXlXlXlXlXlXlXlX",
"lXlXlXlXlXlXlXlXlXlXlXlXlXlXlXlXlXlXlXlXlXlXlXlXlXlXlXlXlXlXlXlXlXlXlXlXlXlXlXlXlXlXlXlXlXlXlXlXlXlXlXlXlXlXlXlXlXlXlXlXlXlXlXlXlXlXlXlXlXlX",
"lXlXlXlXlXlXlXlXlXlXlXlXlXlXlXlXlXlXlXlXlXlXlXlXlXlXlXlXlXlXlXlXlXlXlXlXlXlXlXlXlXlXlXlXlXlXlXlXlXlXlXlXlXlXlXlXlXlXlXlXlXlXlXlXlXlXlXlXlXlX",
"lXlXlXlXlXlXlXlXlXlXlXlXj.8.8.|.lXlXlXlXlXlXlXlXlXlXlXlXlXlXlXlXlXlXlXlXlXlXlXlXlXlXlXlXlXlXlXlXlXlXlXlXlXlXlXlXlXlXlXlXlXlXlXlXlXlXlXlXlXlX",
"lXlXlXlXlXlXlXlXlXlXeXe.2.,.k._ q.pXlXlXlXlXlXlXlXlXlXlXlXlXlXlXlXlXlXlXlXlXlXlXlXlXlXlXlXlXlXlXlXlXlXlXlXlXlXlXlXlXlXlXlXlXlXlXlXlXlXlXlXlX",
"lXlXlXlXlXlXlXlXlXlXsXsXgXdXtX+Xi.oXjXpX1Xh.|.7XlXlXlXlXlXlXlXlXlXlXlXlXlXlXlXlXlXlXlXlXlXlXlXlXlXlXlXlXlXlXlXlXlXlXlXlXlXlXlXlXlXlXlXlXlXlX",
"lXlXlXlXlXlXlXlXlXsXhXhXhXhXhXhXgX8X>Xh.2.4.] @.a.lXlXlXlXlXlXlXlXlXlXlXlXlXlXlXlXlXlXlXlXlXlXlXlXlXlXlXlXlXlXlXlXlXlXlXlXlXlXlXlXlXlXlXlXlX",
"lXlXlXlXlXlXlXlXuXjXhXhXhXhXhXhXjXdXdXfXsXtX.X,.] j.lXlXlXlXlXlXlXlXlXlXlXlXlXlXlXlXlXlXlXlXlXlXlXlXlXlXlXlXlXlXlXlXlXlXlXlXlXlXlXlXlXlXlXlX",
"lXlXlXlXlXlXlXXXtXjXtXwXsXhXhXhXjXrXjXhXhXhXhXyXf.5.lXlXlXlXlXlXlXlXlXlXlXlXlXlXlXlXlXlXlXlXlXlXlXlXlXlXlXlXlXlXlXlXlXlXlXlXlXlXlXlXlXlXlXlX",
"lXlXlXlXlXlXXXw.yX8 X X 3 wXhXhXuXwXhXhXhXhXhXhXfXj.v.lXlXlXlXlXlXlXlXlXlXlXlXlXlXlXlXlXlXlXlXlXlXlXlXlXlXlXlXlXlXlXlXlXlXlXlXlXlXlXlXlXlXlX",
"lXlXlXlXlXlXB {.[..   . 8 wXjXhXqXaXhXhXhXhXhXhXhXyXh.lXlXlXlXlXlXlXlXlXlXlXlXlXlXlXlXlXlXlXlXlXlXlXlXlXlXlXlXlXlXlXlXlXlXlXlXlXlXlXlXlXlXlX",
"lXlXlXlXlX*.D {.4     X #XsXfXkXwXjXyX X].eXjXhXhXhX8XlXlXlXlXlXlXlXlXlXlXlXlXlXlXlXlXlXlXlXlXlXlXlXlXlXlXlXlXlXlXlXlXlXlXlXlXlXlXlXlXlXlXlX",
"lXlXlXlXp.K K e.7     . O 5 dXsXaX@X+ . . O $XhXhXhXgXlXlXlXlXlXlXlXlXlXlXlXlXlXlXlXlXlXlXlXlXlXlXlXlXlXlXlXlXlXlXlXlXlXlXlXlXlXlXlXlXlXlXlX",
"lXlXlXlX<.J J <.].O     . '.gXdXdX3     X OXtXjXhXjXsXlXlXlXlXlXlXlXlXlXlXlXlXlXlXlXlXlXlXlXlXlXlXlXlXlXlXlXlXlXlXlXlXlXlXlXlXlXlXlXlXlXlXlX",
"lXlXlXlXP J w w e.%X8 7 ].aX*X*XrXX     3 sXjXsXhXyXiXlXlXlXlXlXlXlXlXlXlXlXlXlXlXlXlXlXlXlXlXlXlXlXlXlXlXlXlXlXlXlXlXlXlXlXlXlXlXlXlXlXlXlX",
"lXlXlXXXK o.O.+.z.8.|.+X7Xh.6.s.rXO     o 8 9 eXgXp.oXlXlXlXlXlXlXlXlXlXlXlXlXlXlXlXlXlXlXlXlXlXlXlXlXlXlXlXlXlXlXlXlXlXlXlXlXlXlXlXlXlXlXlX",
"lXlXlXXXm #.+.+.R._.3X2X!.J.C.9.eX9         3 tX}.I i.lXlXlXlXlXlXlXlXlXlXlXlXlXlXlXlXlXlXlXlXlXlXlXlXlXlXlXlXlXlXlXlXlXlXlXlXlXlXlXlXlXlXlX",
"lXlXlXXXH l.x.S.P.T.`.`.(.D.J.E.oXuX9 + O 5  Xe./ ) =.lXlXlXlXlXlXlXlXlXlXlXlXlXlXlXlXlXlXlXlXlXlXlXlXlXlXlXlXlXlXlXlXlXlXlXlXlXlXlXlXlXlXlX",
"lXlXlXXXG H.F.L.I.I.I.I.I.P.U.5Xv.f.wX@X Xy.P O.#.' =.lXlXlXlXlXlXlXlXlXlXlXlXlXlXlXlXlXlXlXlXlXlXlXlXlXlXlXlXlXlXlXlXlXlXlXlXlXlXlXlXlXlXlX",
"lXlXlX+X1.W.F.P.I.U.U.5.D.F.P./.0X!.q.k.P O.q q o.' *.lXlXlXlXlXlXlXlXlXlXlXlXlXlXlXlXlXlXlXlXlXlXlXlXlXlXlXlXlXlXlXlXlXlXlXlXlXlXlXlXlXlXlX",
"lXlXlX8X2.~.H.S.I.I.U.F.I.5.F.U.^.`./.R.x.O.O.q J ( &.lXlXlXlXlXlXlXlXlXlXlXlXlXlXlXlXlXlXlXlXlXlXlXlXlXlXlXlXlXlXlXlXlXlXlXlXlXlXlXlXlXlXlX",
"lXlXlXlXa.!.G.A.I.I.I.U.I.I.I.I.I.I.I.L.x.+.O.O.L K >.lXlXlXlXlXlXlXlXlXlXlXlXlXlXlXlXlXlXlXlXlXlXlXlXlXlXlXlXlXlXlXlXlXlXlXlXlXlXlXlXlXlXlX",
"lXlXlXlXi.1X~.A.S.I.I.I.I.I.I.I.I.U.I.L.x.x.+.L ] c +XlXlXlXlXlXlXlXlXlXlXlXlXlXlXlXlXlXlXlXlXlXlXlXlXlXlXlXlXlXlXlXlXlXlXlXlXlXlXlXlXlXlXlX",
"lXlXlXlXXX-X:XC.A.S.S.S.S.L.D.I.I.I.I.L.A.@.( / R :.lXlXlXlXlXlXlXlXlXlXlXlXlXlXlXlXlXlXlXlXlXlXlXlXlXlXlXlXlXlXlXlXlXlXlXlXlXlXlXlXlXlXlXlX",
"lXlXlXlXlX|.9XE.$.B.A.%.A.%.S.D.P.P.P.x.%.| m W S lXlXlXlXlXlXlXlXlXlXlXlXlXlXlX{.:.j g S -.-.;.e.p.lXlXlXlXlXlXlXlXlXlXlXlXlXlXlXlXlXlXlXlX",
"lXlXlXlXlXXX1X1Xb.b.X.X.X.$.%.A.S.A.%.$...R v v t.lXlXlXlXlXlXlXlXlXlXlXlXp.>.f s s d I R G.K.S.@.] H k lXlXlXlXlXlXlXlXlXlXlXlXlXlXlXlXlXlX",
"lXlXlXlXlXlXf.;XE...} } } ..X.X.@.@.X.{ W i s u i.lXlXlXlXlXlXlXlXlXlXw.F  .z.` Z I U ~ ) ] _.5X/.T.A.' g r.lXlXlXlXlXlXlXlXlXlXlXlXlXlXlXlX",
"lXlXlXlXlXlXlXa.M.n.~ ~ ~ } [ { | { [ E y y b W ,.lXlXlXlXlXlXlXlXt.G @.F.P.W.6.W E E ~ ..| K v.3X6X5XW.6.u z lXlXlXlXlXlXlXlXlXlXlXlXlXlXlX",
"lXlXlXlXlXlXlXlX2.n.n.U E E ~ ~ W W C 1 y R ....A lXlXlXlXlXlXlX&.' A.P./.6XE.K ..~ E W { X.7._ G 4.4.4.F s : u.lXlXlXlXlXlXlXlXlXlXlXlXlXlX",
"lXlXlXlXlXlXlXlXlXi.1.E U U U ^ C g 2 s [ ..X...R .XlXlXlXlXlXj R C.(.5X6Xd.K 7.R i M F F m { ....} [ ) I d r ; lXlXlXlXlXlXlXlXlXlXlXlXlXlX",
"lXlXlXlXlXlXlXlXlXlXlXg.i.i.i.}.lXlX&X~ ..X.X...) i.lXlXlXlXk t V 5.c.q.k._ X.G F 7.~.:X,Xd.x ~ ~ ~ ~ E U Y a e 6 lXlXlXlXlXlXlXlXlXlXlXlXlX",
"lXlXlXlXlXlXlXlXlXlXlXlXlXlXlXlXlXlXlX2.7.} ..{ ~ 1.lXlXlXlX- < v D R ' ....R  .D.J.Y.K.!.0X! b U U U U Y Y d a ; OXlXlXlXlXlXlXlXlXlXlXlXlX",
"lXlXlXlXlXlXlXlXlXlXlXlXlXlXlXlXlXlXlXoX6.6.[ [ T f f.7X7Xk $ > y n T W [ )  .Z.S.D.P.L.D.6X2.s U U U U U U U d t 6 lXlXlXlXlXlXlXlXlXlXlXlX",
"lXlXlXlXlXlXlXlXlXlXlXlXlXlXlXlXlXlXlX*X2.b.U U p 4.W./.!.h.:.- ; t a I W } N.S.D.I.I.P.D.:XA n U U U U T W } W C 1 lXlXlXlXlXlXlXlXlXlXlXlX",
"lXlXlXlXlXlXlXlXlXlXlXlXlXlXlXlXlXlXlXlX,.n.U a 7.T.U.P.U.^.2Xf.- : r d E ..B.S.I.I.P.P.J.G.p E U U I T 7.C.V...` u r.lXlXlXlXlXlXlXlXlXlXlX",
"lXlXlXlXlXlXlXlXlXlXlXlXlXlXlXlXlXlXlXlXw.M.1.c B.z.) R ' %.U.6Xp.; e a T } N.S.I.I.S.F.C.M C U U U Z V.H.D.A.%.7.Z j lXlXlXlXlXlXlXlXlXlXlX",
"lXlXlXlXlXlXlXlXlXlXlXlXlXlXlXlXlXlXlXlX{.m.s.i Q p c G b x | ^.9X6 : r C [ $.B.A.A.Z.X.V b E U E C 7.W.K.D.D.S.%.) y lXlXlXlXlXlXlXlXlXlXlX",
"lXlXlXlXlXlXlXlXlXlXlXlXlXlXlXlXlXlXlXlXlXi.;Xh u / N.N.$.) i 7.6Xp.> r a T } X.N.X.) x C E U U Y T !.J.I.I.I.P.Z.| s }.lXlXlXlXlXlXlXlXlXlX",
"lXlXlXlXlXlXlXlXlXlXlXlXlXlXlXlXlXlXlXlXlXe.1Xm.} B.S.S.Z.@.m b ~.|.- t a s Z T T V V E U U U U s 0.`.I.I.I.I.I.A.X.D >.lXlXlXlXlXlXlXlXlXlX",
"lXlXlXlXlXlXlXlXlXlXlXlXlXlXlXlXlXlXlXlXlX+Xh.9Xb.Z.S.L.S.N.| p G.1X, e r Y I I E E E U Y U Y U f Q.!.P.I.U.U.I.L.@.) &.lXlXlXlXlXlXlXlXlXlX",
"lXlXlXlXlXlXlXlXlXlXlXlXlXlXlXlXlXlXlXlXlXlXw.4XW.%.%.D.S.Z.X.p 7.6X, > r C U ~ [ ~ ~ E U U U U i ;X`.P.I.U.U.I.L.Z.] B lXlXlXlXlXlXlXlXlXlX",
"lXlXlXlXlXlXlXlXlXlXlXlXlXlXlXlXlXlXlXlXlXlX+Xs.,Xb.%.S.S.Z.X.v 5.2Xg ; r C Q [ ) R W [ E I U Y y Q.6XD.I.I.I.I.L.A.| v lXlXlXlXlXlXlXlXlXlX",
"lXlXlXlXlXlXlXlXlXlXlXlXlXlXlXlXlXlXlXlXlXlXlXt.;XE.$.A.A.B.@.D G _.=.= u T ) 5.c.d.4.b W U I U t 0.0XY.I.I.I.I.P.A. .v XXlXlXlXlXlXlXlXlXlX",
"lXlXlXlXlXlXlXlXlXlXlXlXlXlXlXlXlXlXlXlXlXlXlXlX2.;Xb.N.B.B.X.R c (.8.- r R 7.Y./.5X0Xv.b ~ U U u B 4X5XD.I.I.I.L.%.{ v f.lXlXlXlXlXlXlXlXlX",
"lXlXlXlXlXlXlXlXlXlXlXlXlXlXlXlXlXlXlXlXlXlXlXlXk 9.m...X.$.X.W c U.G.- t ' Z.I.I.U.`.6X;.E U U Y < 6.4X).D.S.S.A.z.) a t.lXlXlXlXlXlXlXlXlX",
"lXlXlXlXlXlXlXlXlXlXlXlXlXlXlXlXlXlXlXlXlXlXlXlX*.s m.7.....{ R x D.Y.y ; K @.P.I.I.I.).4.I Y Y Y d t 6.!.!.W.H.V.7.A 1 k lXlXlXlXlXlXlXlXlX",
"lXlXlXlXlXlXlXlXlXlXlXlXlXlXlXlXlXlXlXlXlXlXlXlX1.! A 9.6.[ { W v F.U.1.& < @.%.P.P.I.W.G I d a a d u < V 6.n.n.6.S < = j lXlXlXlXlXlX[.lXlX",
"lXlXlXlXlXlXlXlXlXlXlXlXlXlXlXlXlXlXlXlXlXlXlXlX9.7.T I 6.Q ~ ~ x Z.I.C.b * c  .l.F.l._ V s r t t r r u 1 1 < < 1 > = & i Q.lXlXlXlX,.[.lXlX",
"lXlXlXlXlXlXlXlXlXlXlXlXlXlXlXlXlXlXlXlXlXlXlX+XQ.b.7.` I I E [ M Z.I.I.S.K 2 < D ( R V i 1 : > ; : : : : 1 > ; - $ $ < Z.B.h.,X~.C.F 8XlXlX",
"lXlXlXlXlXlXlXlXlXlXlXlXlXlXlXlXlXlXlXlXlXlXlXXX1XC.N.X.[ Z 1.6.b  .I.U.U.I.l.H 2 < < 2 - & & & % % % % % % # $ $ * V F.^.V./ P.D...i.lXlXlX",
"lXlXlXlXlXlXlXlXlXlXlXlXlXlXlXlXlXlXlXlXlXlXlXXX6XC.B.N...T 6.n.R R S.I.U.U.U.I.%.] K c 2 & # # @ @ # # # & 2 < K N.U./.!.F ( Z.} 3.lXlXlXlX",
"lXlXlXlXlXlXlXlXlXlXlXlXlXlXlXlXlXlXlXlXlXlXlX|.:XF.Z.B.X.m 9.m.{ D { D.P.I.U.U.b.V.I.I.S.Z.z.] ' _ _ ( R ) B.Y.^._.6X6X8.:.1.3.s.lXlXlXlXlX",
"lXlXlXlXlXlXlXlXlXlXlXlXlXlXlXlXlXlXlXlXlXlXlXd.H.A.S.Z.X.T s.~.X.| V ) H.W.).Q.8Xh.H././.^.^.^./.^.K.6.E W ! 6.d.h.a.r.*XlXlXlXlXlXlXlXlXlX",
"lXlXlXlXlXlXlXlXlXlXlXlXlXlXlXlXlXlXlXlXlXlXlXG.F.S.S.B.X.R a.,XB.B.@.m *.g.&XlXlXlXa.n.!.,X6X<XQ.9.T i { ..{ ) / R W 9.lXlXlXlXlXlXlXlXlXlX",
"lXlXlXlXlXlXlXlXlXlXlXlXlXlXlXlXlXlXlXlXlXlX1Xl.Z.S.A.B...T -.0XH.A.S.A. .) h.lXlXlXlXXXt.j N M x B C B m.7.%.A.A.%.$.} >XlXlXlXlXlXlXlXlXlX",
"lXlXlXlXlXlXlXlXlXlXlXlXlXlXlXlXlXlXlXlX*X|.7.l.A.Z.B.X.} E f <XW.L.L.S.%.@.0.lXlXlXlXlXlX,.{ | ..{ T *.:XN.B.S.S.L.%.X.9.lXlXlXlXlXlXlXlXlX",
"lXlXlXlXlXlXlXlXlXlXlXlXlXlXlXlXlXlXlXi.&X:XH.Z.B.N.X.{ ) I M 6X(.P.I.P.S.$.6.lXlXlXlXlXlXd. .X...[ I ,.4XC.A.S.D.%.Z.$.) &XlXlXlXlXlXlXlXlX",
"lXlXlXlXlXlXlXlXlXlXlXlXlXlXlXlXlXlXu.;.G.G.N.@.X...[ ~ E u 8.).I.I.I.I.S.%.{ |.lXe.A 0.:XW.7.7.} [ I =.,XC.B.A.A.B.$.7.{ 2.lXlXlXlXlXlXlXlX",
"lXlXlXlXlXlXlXlXlXlXlXlXlXlXlXlXlXyXgX.XT [ ) ` } ~ W C g 4.W.H.S.P.P.L.S.$...A k t.>.' 7.7.X.} [ W U B E.H.B.B.$.$.X.} [ T lXlXlXlXlXlXlXlX",
"lXlXlXlXlXlXlXlXlXlXlXlXlXlXlXlXlXtXgX.XZ ,.}.>.E I y y [ V.B.%.A.S.S.A.B.X.{ B lXlXlX=.R ) [ Q T u s T 6.C.$.X.X.} { [ W A lXlXlXlXlXlXlXlX",
"lXlXlXlXlXlXlXlXlXlXlXlXlXlXlXlXlXlX@Xw.h {.lX{.u y u S F | X.X.$.$.N.N.X...[ C OXlXlX:.}.e.T I 2 p W [ } } ..} 1.1.W 3.U h lXlXlXlXlXlXlXlX",
"lXlXlXlXlXlXlXlXlXlXlXlXlXlXlXlXlXlXlXlX8X$XOXOXp.s p.tX+X-.! ,.;.{ } { [ [ E S lXlX[.z lXlXM 3.lXlX>.F *.=.A j l 3.l l l z lXlXlXlXlXlXlXlX",
"lXlXlXlXlXlXlXlXlXlXlXlXlXlXlXlXlXlXlXlXlXlXlXlXlXg.+XdXtX=.e.aXOXT ~ W E E Y >.lXlXlXlXlXlX.XlXlXlXu.w.lX$Xz qX'.l l z ].lXlXlXlXlXlXlXlXlX",
"lXlXlXlXlXlXlXlXlXlXlXlXlXlXlXlXlXlXlXlXlXlXlXlXlXlXlXlX+Xi.r.#Xy.h S h f j >.lXlXlXlXlXlXlXlXlXlXlXu.t.@XOXu.%X%X XlXlXlXlXlXlXlXlXlXlXlXlX",
"lXlXlXlXlXlXlXlXlXlXlXlXlXlXlXlXlXlXlXlXlXlXlXlXlXlXlXlXlXlXlXlXlXlXlXlXlXlXlXlXlXlXlXlXlXlXlXlXlXlXlXlXlXlXlXlXlXlXlXlXlXlXlXlXlXlXlXlXlXlX",
"lXlXlXlXlXlXlXlXlXlXlXlXlXlXlXlXlXlXlXlXlXlXlXlXlXlXlXlXlXlXlXlXlXlXlXlXlXlXlXlXlXlXlXlXlXlXlXlXlXlXlXlXlXlXlXlXlXlXlXlXlXlXlXlXlXlXlXlXlXlX",
"lXlXlXlXlXlXlXlXlXlXlXlXlXlXlXlXlXlXlXlXlXlXlXlXlXlXlXlXlXlXlXlXlXlXlXlXlXlXlXlXlXlXlXlXlXlXlXlXlXlXlXlXlXlXlXlXlXlXlXlXlXlXlXlXlXlXlXlXlXlX"
};
