/* XPM */
static char *_627917059292[] = {
/* columns rows colors chars-per-pixel */
"70 70 224 2 ",
"   c #376733",
".  c #3D6C3A",
"X  c #3D6B36",
"o  c #4A542E",
"O  c #4D5A2E",
"+  c #47502F",
"@  c #515E2F",
"#  c #4D5632",
"$  c #4E5A31",
"%  c #525D36",
"&  c #454E2C",
"*  c #426E36",
"=  c #556233",
"-  c #5A6637",
";  c #5D6A3B",
":  c #586A37",
">  c #4D7436",
",  c #49743B",
"<  c #567C3B",
"1  c #5A7D3C",
"2  c #577538",
"3  c #616E3C",
"4  c #63723D",
"5  c #5D6A44",
"6  c #4C7641",
"7  c #5D7747",
"8  c #626B48",
"9  c #657344",
"0  c #697643",
"q  c #6C7B45",
"w  c #6D7D4B",
"e  c #68724F",
"r  c #687457",
"t  c #737C5B",
"y  c #727D56",
"u  c #646B50",
"i  c #5D823F",
"p  c #5C814B",
"a  c #588145",
"s  c #5A8355",
"d  c #628444",
"f  c #6B8B43",
"g  c #668C49",
"h  c #6A8C4B",
"j  c #678746",
"k  c #718E45",
"l  c #72844B",
"z  c #758C4B",
"x  c #6E914D",
"c  c #70924B",
"v  c #7C9A4D",
"b  c #769449",
"n  c #6B8B53",
"m  c #63875B",
"M  c #7E8C5B",
"N  c #798857",
"B  c #6E9253",
"V  c #7C9253",
"C  c #74925A",
"Z  c #779A55",
"A  c #7DA35D",
"S  c #668B63",
"D  c #7E8965",
"F  c #7A8567",
"G  c #6D9466",
"H  c #6F916F",
"J  c #749C63",
"K  c #71946B",
"L  c #789A67",
"P  c #7B9C7A",
"I  c #789A75",
"U  c #7BA264",
"Y  c #7DA36C",
"T  c #7DA273",
"R  c #849C4E",
"E  c #859D53",
"W  c #82995B",
"Q  c #80925D",
"!  c #8BA554",
"~  c #84A35B",
"^  c #8BA45B",
"/  c #88A859",
"(  c #92AB5B",
")  c #92AB57",
"_  c #8DB25A",
"`  c #95B25B",
"'  c #98B55C",
"]  c #818C68",
"[  c #869565",
"{  c #8B986C",
"}  c #8A9473",
"|  c #889B73",
" . c #929C7A",
".. c #909878",
"X. c #848873",
"o. c #81A564",
"O. c #83A964",
"+. c #86AA6A",
"@. c #89AD6A",
"#. c #88A56A",
"$. c #93AC64",
"%. c #97AB6D",
"&. c #92A769",
"*. c #8AB168",
"=. c #93B365",
"-. c #9DBC6B",
";. c #99B567",
":. c #89A173",
">. c #86A878",
",. c #97A87B",
"<. c #95B37B",
"1. c #99B779",
"2. c #8EB274",
"3. c #A1BE6B",
"4. c #A0BD67",
"5. c #A2B878",
"6. c #A2C165",
"7. c #A4C36B",
"8. c #ACCC6C",
"9. c #A3CE6A",
"0. c #A7D16D",
"q. c #B1D56D",
"w. c #A5C372",
"e. c #A9C672",
"r. c #A3CE76",
"t. c #ADCB72",
"y. c #ACC77B",
"u. c #B0CE77",
"i. c #ADD574",
"p. c #A9D277",
"a. c #B3D274",
"s. c #B6D47C",
"d. c #BCDD7B",
"f. c #B6D977",
"g. c #C0E07E",
"h. c #7F9E80",
"j. c #979F84",
"k. c #88A585",
"l. c #9BA483",
"z. c #97AA87",
"x. c #9CB684",
"c. c #9CB18C",
"v. c #9EBE84",
"b. c #99B296",
"n. c #95AF91",
"m. c #A4AD8D",
"M. c #A1AC85",
"N. c #A4B987",
"B. c #A5AC93",
"V. c #A8B697",
"C. c #A5B9A3",
"Z. c #B4BBA3",
"A. c #B7BBAA",
"S. c #B8BCA9",
"D. c #ADC686",
"F. c #B1CB83",
"G. c #B5CC8D",
"H. c #B2C28C",
"J. c #B5D482",
"K. c #BDDA84",
"L. c #BCD48C",
"P. c #BED98B",
"I. c #BBD784",
"U. c #AAC394",
"Y. c #AFC39D",
"T. c #B7CE92",
"R. c #B8C89A",
"E. c #BCD795",
"W. c #AAD188",
"Q. c #B5C6A5",
"!. c #B1C3AB",
"~. c #BCCAAC",
"^. c #B9C9A5",
"/. c #BED7A9",
"(. c #BBCBBB",
"). c #BBC9B3",
"_. c #BFD0B0",
"`. c #AEC2A5",
"'. c #C3DE8D",
"]. c #C1DF83",
"[. c #C0D59A",
"{. c #C5DC9B",
"}. c #C4E285",
"|. c #C6E48A",
" X c #C9E68C",
".X c #CCE69A",
"XX c #D0E89A",
"oX c #C3DBA8",
"OX c #CDDEAC",
"+X c #C6D6A5",
"@X c #C1C5B6",
"#X c #C4CBB4",
"$X c #C9CDBD",
"%X c #CAD4B4",
"&X c #CCD3BC",
"*X c #CBDABB",
"=X c #C6D5B4",
"-X c #D1DDBA",
";X c #C7E1AA",
":X c #D1E4AB",
">X c #D7EBAD",
",X c #D5EBA6",
"<X c #C9E1B3",
"1X c #D5E1BE",
"2X c #D9EBB6",
"3X c #DFF1B9",
"4X c #E0EFBE",
"5X c #E0F1B9",
"6X c #CCDBC2",
"7X c #D1DBC3",
"8X c #CBCFC0",
"9X c #D8E2C4",
"0X c #DAE5C8",
"qX c #DDE7D2",
"wX c #E2ECCD",
"eX c #E6F3C7",
"rX c #E3ECD5",
"tX c #EAF5D4",
"yX c #EBF5D7",
"uX c #F2F7E6",
"iX c #FFFFFF",
"pX c #F7F7F5",
"aX c #EDEDEA",
"sX c #BBE3ED",
/* pixels */
"sXsXsXsXsXsXsXsXsXsXsXsXsXsXsXsXsXsXsXsXsXsXsXsXsXsXsXsXsXsXsXsXsXsXsXsXsXsXsXsXsXsXsXsXsXsXsXsXsXsXsXsXsXsXsXsXsXsXsXsXsXsXsXsXsXsXsXsXsXsX",
"sXsXsXsXsXsXsXsXsXsXsXsXsXsXsXsXsXsXsXsXsXsXsXsXsXsXsXsXsXsXsXsXsXsXsXsXsXsXsXsXsXsXsXsXsXsXsXsXsXsXsXsXsXsXsXsXsXsXsXsXsXsXsXsXsXsXsXsXsXsX",
"sXsXsXsXsXsXsXsXsXsXsXsXsXsXsXsXsXsXsXsXsXsXsXsXsXsXsXsXsXsXsXsXsXsXsXsXsXsXsXsXsXsXsXsXsXsXsXsXsXsXsXsXsXsXsXsXsXsXsXsXsXsXsXsXsXsXsXsXsXsX",
"sXsXsXsXsXsXsXsXsXsXsXsXsXsXsXsXsXsXsXsXsXsXsXsXsXsXsXsXsXsXsXsXsXsXsXsXsXsXsXsXsXsXsXsXsXsXsXsXsXsXsXsXsXsXsXsXsXsXsXsXsXsXsXsXsXsXsXsXsXsX",
"sXsXsXsXsXsXsXsXsXsXsXsXsXsXsXsXsXsXsXsXsXsXsXsXsXsXsXsXsXsXsXsXsXsXsXsXsXsXsXsXsXsXsXsXsXsXsXsXsXsXsXsXsXsXsXsXsXsXsXsXsXsXsXsXsXsXsXsXsXsX",
"sXsXsXsXsXsXsXsXsXsXsXsXsXsXsXsXsXsXsXsXsXsXsXsXsXsXsXsXsXsXsXsXsXsXsXsXsXsXsXsXsXsXsXsXsXsXsXsXsXsXsXsXsXsXsXsXsXsXsXsXsXsXsXsXsXsXsXsXsXsX",
"sXsXsXsXsXsXsXsXsXsXsXsXsXsXsXsXsXsXsXsXsXsXsXsXsXsXsXsXsXsXsXsXsXsXsXsXsXsXsXsXsXsXsXsXsXsXsXsXsXsXsXsXsXsXsXsXsXsXsXsXsXsXsXsXsXsXsXsXsXsX",
"sXsXsXsXsXsXsXsXsXsXsXsXsXsXsXsXsXsXsXsXsXsXsXsXsXsXsXsXsXsXsXsXsXsXsXsXsXsXQ.sXsXsXsXsXsXsXsXsXsXsXsXsXsXsXsXsXsXsXsXsXsXsXsXsXsXsXsXsXsXsX",
"sXsXsXsXsXsXsXsXsXsXsXsXsXsXsXsXsXsXsXsXsXsXsXsXsXsXsXsXsXsXsXsXN.sXsXsXsXsX:.sXsXsXsXsXsXsXsXsXsXsXsXsXsXsXsXsXsXsXsXsXsXsXsXsXsXsXsXsXsXsX",
"sXsXsXsXsXsXsXsXsXsXsXsXsXsXsXsXsXsXsXsXsXsXsXsXsXsXsXsXsXsXsXsX/ sXsXsXsXQ.G sXsXsXsXsXsXsXsXsXsXsXsXsXsXsXsXsXsXsXsXsXsXsXsXsXsXsXsXsXsXsX",
"sXsXsXsXsXsXsXsXsXsXsXsXsXsXsXsXsXsXsXsXsXsXsXsXsXsXsXsXsXsXsXsXv N.sXsXsX2.G sXsXsXsXsXsXsXsXsXsXsXsXsXsXsXsXsXsXsXsXsXsXsXsXsXsXsXsXsXsXsX",
"sXsXsXsXsXsXsXsXsXsXsXsXsXsXsXsXsXsXsXsXsXsXsXsXsXsXsXsXsXsXsXsX~ V sXsXsXA s sXsXsXsXsXsXsXsXsXsXsXsXsXsXsXsXsXsXsXsXsXsXsXsXsXsXsXsXsXsXsX",
"sXsXsXsXsXsXsXsXsXsXsXsXsXsXsXsXsXsXsXsXsXsXsXsXsXsXsXsXsXsXsXsXD.f N.sXsXA a !.sXsXsXsXsXsXsXsXsXsXsXsXsXsXsXsXsXsXsXsXsXsXsXsXsXsXsXsXsXsX",
"sXsXsXsXsXsXsXsXsXsXsXsXsXsXsXsXsXsXsXsXsXsXsXsXsXsXsXsXsXsXsXsX:X` ! sXsX<.g K sXsXsXsXsXsXsXsXsXsXsXsXsXsXsXsXsXsXsXsXsXsXsXsXsXsXsXsXsXsX",
"sXsXsXsXsXsXsXsXsXsXsXsXsXsXsXsXsXsXsXsXsXsXsXsXsXsXsXsXsXsXsXsXsX8.! sXsX*XZ a !.sXsXsXsXsXsXsXsXsXsXsXsXsXsXsXsXsXsXsXsXsXsXsXsXsXsXsXsXsX",
"sXsXsXsXsXsXsXsXsXsXsXsXsXsXsXsXsXsXsXsXsXsXsXsXsXsXsXsXsXsXsXsXsXa.) %XsXsXx.g n sXsXsXsXsXsXsXsXsXsXsXsXsXsXsXsXsXsXsXsXsXsXsXsXsXsXsXsXsX",
"sXsXsXsXsXsXsXsXsXsXsXsXsXsXsXsXsXsXsXsXsXsXsXsXsXsXsXsXsXsXsXsXsXs.) R.sXsXsXo.i L sXsXsXsXsXsXsXsXsXsXsXsXsXsXsXsXsXsXsXsXsXsXsXsXsXsXsXsX",
"sXsXsXsXsXsXsXsXsXsXsXsXsXsXsXsXsXsXsXsXsXsXsXsXsXsXsXsXsXsXsXsXsX[.' 5.sXsXsX_.x i c.sXsXsXsXsXsXsXsXsXsXsXsXsXsXsXsXsXsXsXsXsXsXsXsXsXsXsX",
"sXsXsXsXsXsXsXsXsXsXsXsXsXsXsXsXsXsXsXsXsXsXsXsXsXsXsXsXsXsXsXsXsXsX7.;.%XsXsXsX<.a 7 sXsXsXsXsXsXsXsXsXsXsXsXsXsXsXsXsXsXsXsXsXsXsXsXsXsXsX",
"sXsXsXsXsXsXsXsXsXsXsXsXsXsXsXsXsXsXsXsXsXsXsXsXsXsXsXsXsXsXsXsXsXsXF.4.5.sXsXsXY.f > k.sXsXsXsXsXsXsXsXsXsXsXsXsXsXsXsXsXsXsXsXsXsXsXsXsXsX",
"sXsXsXsXsXsXsXsXsXsXsXsXsXsXsXsXsXsXsXsXsXsXsXsXsXsXsXsXsXsXsXsXS.sX1Xe.;.H.sXsXV.g B P sXsXsXsXsXsXm.sXsXsXsXsXsXsXsXsXsXsXsXsXsXsXsXsXsXsX",
"sXsXsXsXsXsXsXsXsXsXsXsXsXsXsXsXsXsXsXsXsXsXsXsXsXsXsXsXsXsXsXsXj.sXsXJ.6.( -XsX,.C G I sXsXsXsXsXsXQ sXsXsXsXsXsXsXsXsXsXsXsXsXsXsXsXsXsXsX",
"sXsXsXsXsXsXsXsXsXsXsXsXsXsXsXsXsXsXsXsXsXsXsXsXsXsXsXsXsXsXsXsX..A.sX{.8.) M.sXn C m P sXsXsXsXsXB.z sXsXsXsXsXsXsXsXsXsXsXsXsXsXsXsXsXsXsX",
"sXsXsXsXsXsXsXsXsXsXsXsXsXsXsXsXsXsXsXsXsXsXsXsXsXsXsXsXsXsXsXsXB.t sX'.q.! %.~.2 n m C.sXsXsXsXsXl M sXsXsXsXsXsXsXsXsXsXsXsXsXsXsXsXsXsXsX",
"sXsXsXsXsXsXsXsXsXsXsXsXsXsXsXsXsXsXsXsXsXsXsXsXsXsXsXsXsXsXsXsXsX% M.f.8.R ,.| > * s sXsXsXsXsX{ q { sXsXsXsXsXsXsXsXsXsXsXsXsXsXsXsXsXsXsX",
"sXsXsXsXsXsXsXsXsXsXsXsXsXsXsXsXsXsXsXsXsXsXsXsXsXsXb.sXsXsXsXsXsXt ^ a.` k x.d >   P sXsXsXsXsX; q Q.sXsXsXsXsXsXsXsXsXsXsXsXsXsXsXsXsXsXsX",
"sXsXsXsXsXsXsXsXsXsXsXsXsXsXsXsXsXsXsXsXsXsXsXsXsXP !.sXsXsXsXsXsX^.7.6.k L c.2 * , sXsX1XsXsXN 4 N sXsXsXsXsXsXsXsXsXsXsXsXsXsXsXsXsXsXsXsX",
"sXsXsXsXsXsXsXsXsXsXsXsXsXsXsXsXsXsXsXsXsXsXsXsX>.Y sXsXsXsXsXsXsXE.3.v 1 ~.| >   I sXsX-XsXA.= q l.sXsXsXsXsXsXsXsXsXsXsXsXsXsXsXsXsXsXsXsX",
"sXsXsXsXsXsXsXsXsXsXsXsXsXsXsXsXsXsXsXsXsXsX=Xo.A Q.sXsXsXsXsXsX9X3.v 2 :.sXn 2 . !.sXT.sXsXQ - q sXsXsXsXsXsXsXsXsXsXsXsXsXsXsXsXsXsXsXsXsX",
"sXsXsXsXsXsXsXsXsXsXsXsXsXsXsXsXsXsXsXsXsX7X*.O.v.sXsXsXsXsXsXsXG.~ 1 2 ,.sXh > . sXsXD.sXsX8 3 N sXsXsXsXsXsXsXsXsXsXsXsXsXsXsXsXsXsXsXsXsX",
"sXsXsXsXsXsXsXsXsXsXsXsXsXsXsXsXsXsXsXsXsXv.*.*.sXsXsXsXsXsXsXsX;.f f - ] sXn 6   n.G.'.sX@X= 3 l.sXsXsXsXsXsXsXsXsXsXsXsXsXsXsXsXsXsXsXsXsX",
"sXsXsXsXsXsXsXsXsXsXsXsXsXsXsXsXsXsXsXsX*X*.A U.sXsXsXsXsXsXsXOX~ f f o } sX:.a X n e.2XsXV.= 4 @XsXsXsXsXsXsXsXsXsXsXsXsXsXsXsXsXsXsXsXsXsX",
"sXsXsXsXsXsXsXsXsXsXsXsXsXsXsXsXsXsXsXsXU.O.U 7XsXsXsXsXsXsXsXE.! b 3 o A.sX#Xd g =.d.sXsXl.= q sXsXsXsXsXsXsXsXsXsXsXsXsXsXsXsXsXsXsXsXsXsX",
"sXsXsXsXsXsXsXsXsXsXsXsXsXsXsXsXsXsXsXsXv.A *.sXsXsXsXsXsXsXsXP.) R - ] sXsXsX#.=.a.J.6XsX} @ q sXsXsXsXsXsXsXsXsXsXsXsXsXsXsXsXsXsXsXsXsXsX",
"sXsXsXsXsXsXsXsXsXsXsXsXsXsXsXsXsXsXsXsX1.U +.sXsXsXsXsXsXsXsXy.` R [ sXsXsXsXT.8.|.*.H sX..- 4 sXsXsXsXsXyXyXsXsXsXsXsXsXsXsXsXsXsXsXsXsXsX",
"sXsXsXsXsXsXsXsXsXsXsXsXsXsXsXsXsXsXsXsXv.U U 0XsXsXsXsXsXj.5 ^ 6.! R.sXsXsXwXs.g.|.h , sXm.: 3 &XsXsXsXsXeXyXsXsXsXsXsXsXsXsXsXsXsXsXsXsXsX",
"sXsXsXsXsXsXsXsXsXsXsXsXsXsXsXsXsXsXsXsX^.A J U.sXsXsX#Xy @ = [ t.' 5.sXsXsX'.g. Xw.x > !.&X0 = V.sXsXsXsX,XeXiXsXsXsXsXsXsXsXsXsXsXsXsXsXsX",
"sXsXsXsXsXsXsXsXsXsXsXsXsXsXsXsXsXsXsXsXqX@.G +.7XsXZ.; = 9 V.sX'.6.( 7XsX>Xg.|.P.c Z < c.sX[ ; y sXsXsXE.|.uXsXsXsXsXsXsXsXsXsXsXsXsXsXsXsX",
"sXsXsXsXsXsXsXsXsXsXsXsXsXsXsXsXsXsXsXsXsX^.J K 1.V.5 O 9 $XsXsXOX3.( %XsX|.}.|.{.d b i z.sX#XQ 3 m.;Xr.d.>XsXsXsXsXsXsXsXsXsXsXsXsXsXsXsXsX",
"sXsXsXsXsXsXsXsXsXsXsXsXsXsXsXsXsXsXsXsXsXsXU.K Y U 9 = S.sXsXsX+X4.) *XsXd.}.|.1Xn B a c.sXsX,.( 6.9.f.XXuXsXsXsXsXsXsXsXsXsXsXsXsXsXsXsXsX",
"sXsXsXsXsXsXsXsXsXsXsXsXsXsXsXsXsXsXsXsXsXsXsX_.k.k.O.| sXsXsXsXF.( ^ sXtXa.}. X*Xd c 1 !.sXsXP.q.f.d.,XsXsXsXsXsXsXsXsXsXsXsXsXsXsXsXsXsXsX",
"sXsXsXsXsXsXsXsXsXsXsXsXsXsXsXsXsXsXsXsXsXsXsXsXb.h.T 2.qXsXsX1X3.E 5.sXwXu.].}.x.d h p sXsX.Xi.g.s.^ #XsXsXsXsXsXsXsXsXsXsXsXsXsXsXsXsXsXsX",
"sXsXsXsXsXsXsXsXsXsXsXsXsXsXsXsXsXsXsXsXsXsXsXsX..F H G <.sXsXG.^ v %XsXrXt.].0.g g d k.sXtXi.d.t.Q 0 ,.sXsXsXsXsXsXsXsXsXsXsXsXsXsXsXsXsXsX",
"sXsXsXsXsXsXsXsXsXsXsXsXsXsXsXsXsXsXsXsXsXsXsXsX} u 5 S J U.qXe.v $.sXsXsXy.s.v d g 7 (.sX2X0.|.%.4 0 [ sXsXsXsXsXsXsXsXsXsXsXsXsXsXsXsXsXsX",
"sXsXsXsXsXsXsXsXsXsXsXsXsXsXsXsXsXsXsXsXsXsXsXsXN # # 7 G +.T.-.b %.sXsXsXG./ d h p H sXsX;X8.|.{ 4 4 [ sXsXsXsXsXsXsXsXsXsXsXsXsXsXsXsXsXsX",
"sXsXsXsXsXsXsXsXsXsXsXsXsXsXsXsXsXsXsXsXsXsXsXsXD O o : S J ;.6.k %.sXsXsX^.g h d 6 (.sXsX;X9.e.q 3 4 ,.sXsXsXsXsXsXsXsXsXsXsXsXsXsXsXsXsXsX",
"sXsXsXsXsXsXsXsXsXsXsXsXsXsXsXsXsXsXsXsXsXsXsXsXB.O + # 7 J =.9.c E 7XsXsXV.f i * I sXsXsX<X_ q 3 ; 0 ^.sXsXsXsXsXsXsXsXsXsXsXsXsXsXsXsXsXsX",
"sXsXsXsXsXsXsXsXsXsXsXsXsXsXsXsXsXsXsXsXsXsXsXsXsX9 o # - n U.L._ k 5.sXsXJ i > 6 J.sXsXsXV.2 - ; 3 Q sXsXsXsXsXsXsXsXsXsXsXsXsXsXsXsXsXsXsX",
"sXsXsXsXsXsXsXsXsXsXsXsXsXsXsXsXsXsXsXsXsXsXsXsXsXsX: # # : ~.rXu.v R N.Y.g > . O.}.5XsX..- - - - q Z.sXsXsXsXsXsXsXsXsXsXsXsXsXsXsXsXsXsXsX",
"sXsXsXsXsXsXsXsXsXsXsXsXsXsXsXsXsXsXsXsXsXsXsXsXsXsXl.@ + o } pX0X8.R ! ~ < X a 3.d.XX[ = = - 3 q M.sXsXsXsXsXsXsXsXsXsXsXsXsXsXsXsXsXsXsXsX",
"sXsXsXsXsXsXsXsXsXsXsXsXsXsXsXsXsXsXsXsXsXsXsXsXsXsXsXD O + % @XiX:X6.R E < . `.D.7.].%.= 3 4 q $.sXsXsXsXsXsXsXsXsXsXsXsXsXsXsXsXsXsXsXsXsX",
"sXsXsXsXsXsXsXsXsXsXsXsXsXsXsXsXsXsXsXsXsXsXsXsXsXsXsXx.9 $ + F pXuXK.! R a H sX%X3.a.].l 4 N $.d.4XsXsXsXsXsXsXsXsXsXsXsXsXsXsXsXsXsXsXsXsX",
"sXsXsXsXsXsXsXsXsXsXsXsXsXsXsXsXsXsXsXsXsXsXsXsXsXsXsX2.Z w # # @XiXOX' k x ).sX .~ 7.}.$. .sXoXa.XXsXsXsXsXsXsXsXsXsXsXsXsXsXsXsXsXsXsXsXsX",
"sXsXsXsXsXsXsXsXsXsXsXsXsXsXsXsXsXsXsXsXsXsXsXsXsXsXsX>.O.!.N o r aXrX7.f #.sX8X3 l -.s.;XsXsXsXr.|.sXsXsXsXsXsXsXsXsXsXsXsXsXsXsXsXsXsXsXsX",
"sXsXsXsXsXsXsXsXsXsXsXsXsXsXsXsXsXsXsXsXsXsXsXsXsXsXsXk.U _.8X5 + A.rX7.f V.sX} 3 w $.e.,XsXsXsXW.d.eXsXsXsXsXsXsXsXsXsXsXsXsXsXsXsXsXsXsXsX",
"sXsXsXsXsXsXsXsXsXsXsXsXsXsXsXsXsXsXsXsXsXsXsXsXsXsXsXsXG <.qX] & X.*X-.c $XsX9 4 l &.7.'.sXsXsXoXi.3XsXsXsXsXsXsXsXsXsXsXsXsXsXsXsXsXsXsXsX",
"sXsXsXsXsXsXsXsXsXsXsXsXsXsXsXsXsXsXsXsXsXsXsXsXsXsXsXsXh.Y U. .O r ~.-.x sX@X3 w Q &XF.s.sXsXsXsXr.>XsXsXsXsXsXsXsXsXsXsXsXsXsXsXsXsXsXsXsX",
"sXsXsXsXsXsXsXsXsXsXsXsXsXsXsXsXsXsXsXsXsXsXsXsXsXsXsXsXsXI U Z % 8 R.=.c sXm.4 l ,.sX[.u.sXsXsXsXp.>XsXsXsXsXsXsXsXsXsXsXsXsXsXsXsXsXsXsXsX",
"sXsXsXsXsXsXsXsXsXsXsXsXsXsXsXsXsXsXsXsXsXsXsXsXsXsXsXsXsXsXI O.q u ~._ :.sX..9 N R.sX1Xe.sXsXsXsXp.>XsXsXsXsXsXsXsXsXsXsXsXsXsXsXsXsXsXsXsX",
"sXsXsXsXsXsXsXsXsXsXsXsXsXsXsXsXsXsXsXsXsXsXsXsXsXsXsXsXsXsXsXL A D /.b n.sX} q V %XsXsXF.sXsXsXsXp.3XsXsXsXsXsXsXsXsXsXsXsXsXsXsXsXsXsXsXsX",
"sXsXsXsXsXsXsXsXsXsXsXsXsXsXsXsXsXsXsXsXsXsXsXsXsXsXsXsXsXsXsXb.U <.y.a b.sX..q W 7XsXsXE.sXsXsXsXi.sXsXsXsXsXsXsXsXsXsXsXsXsXsXsXsXsXsXsXsX",
"sXsXsXsXsXsXsXsXsXsXsXsXsXsXsXsXsXsXsXsXsXsXsXsXsXsXsXsXsXsXsXC.G *.Z , C.sXl.l W sXsXsXE.sXsXsX<XK.sXsXsXsXsXsXsXsXsXsXsXsXsXsXsXsXsXsXsXsX",
"sXsXsXsXsXsXsXsXsXsXsXsXsXsXsXsXsXsXsXsXsXsXsXsXsXsXsXsXsXsXsX| m U x.m C.sXZ.q W 7XsXsX[.sXsXsXE.:XsXsXsXsXsXsXsXsXsXsXsXsXsXsXsXsXsXsXsXsX",
"sXsXsXsXsXsXsXsXsXsXsXsXsXsXsXsXsXsXsXsXsXsXsXsXsXsXsXsXsXsXsXe r Y =Xk.C.sXsXN W #XsX9XOXsXsXsXK.sXsXsXsXsXsXsXsXsXsXsXsXsXsXsXsXsXsXsXsXsX",
"sXsXsXsXsXsXsXsXsXsXsXsXsXsXsXsXsXsXsXsXsXsXsXsXsXsXsXsXsXsXsXsXsXsXsXsXsXsXsXsXsXsXsXsXsXsXsXsXsXsXsXsXsXsXsXsXsXsXsXsXsXsXsXsXsXsXsXsXsXsX",
"sXsXsXsXsXsXsXsXsXsXsXsXsXsXsXsXsXsXsXsXsXsXsXsXsXsXsXsXsXsXsXsXsXsXsXsXsXsXsXsXsXsXsXsXsXsXsXsXsXsXsXsXsXsXsXsXsXsXsXsXsXsXsXsXsXsXsXsXsXsX",
"sXsXsXsXsXsXsXsXsXsXsXsXsXsXsXsXsXsXsXsXsXsXsXsXsXsXsXsXsXsXsXsXsXsXsXsXsXsXsXsXsXsXsXsXsXsXsXsXsXsXsXsXsXsXsXsXsXsXsXsXsXsXsXsXsXsXsXsXsXsX",
"sXsXsXsXsXsXsXsXsXsXsXsXsXsXsXsXsXsXsXsXsXsXsXsXsXsXsXsXsXsXsXsXsXsXsXsXsXsXsXsXsXsXsXsXsXsXsXsXsXsXsXsXsXsXsXsXsXsXsXsXsXsXsXsXsXsXsXsXsXsX",
"sXsXsXsXsXsXsXsXsXsXsXsXsXsXsXsXsXsXsXsXsXsXsXsXsXsXsXsXsXsXsXsXsXsXsXsXsXsXsXsXsXsXsXsXsXsXsXsXsXsXsXsXsXsXsXsXsXsXsXsXsXsXsXsXsXsXsXsXsXsX",
"sXsXsXsXsXsXsXsXsXsXsXsXsXsXsXsXsXsXsXsXsXsXsXsXsXsXsXsXsXsXsXsXsXsXsXsXsXsXsXsXsXsXsXsXsXsXsXsXsXsXsXsXsXsXsXsXsXsXsXsXsXsXsXsXsXsXsXsXsXsX"
};
